<svg xmlns="http://www.w3.org/2000/svg" viewBox="0 0 2484.72 1463.76"><g id="Laag_2" data-name="Laag 2"><g id="Laag_1-2" data-name="Laag 1"><path d="M2484.42,232.89s-71.68-55.48-303.77-140.72C1977,17.22,1821.43,0,1821.43,0l.77,444.48c0,187.87-212.3,387.36-574.87,387.36H1237c-362.53,0-574.75-199.49-574.75-387.36L662.91,0S507.49,17.2,303.75,92.17C71.66,177.41,0,232.89,0,232.89,17.2,589.37,571,883.07,1242.07,883.22h.15c671.13-.15,1225-293.85,1242.2-650.33"/><path d="M2484.72,1231s-71.66,55.32-303.76,140.64c-203.8,75-359.23,92.09-359.23,92.09l.78-444.41c0-187.82-212.31-387.24-574.87-387.24l-5.1-.16h-.16l-5,.16c-362.6,0-574.83,199.42-574.83,387.24l.79,444.41s-155.5-17.13-359.23-92.09C72.06,1286.35.25,1231,.25,1231c17.2-356.45,571.13-650.15,1242.3-650.38,671.11.23,1225.05,293.93,1242.17,650.38"/></g></g></svg>